<svg xmlns="http://www.w3.org/2000/svg" xmlns:xlink="http://www.w3.org/1999/xlink" width="400" zoomAndPan="magnify" viewBox="0 0 300 74.999997" height="100" preserveAspectRatio="xMidYMid meet" version="1.0"><defs><g/><clipPath id="5750abae3e"><path d="M 61 4.148438 L 144.988281 4.148438 L 144.988281 66.398438 L 61 66.398438 Z M 61 4.148438 " clip-rule="nonzero"/></clipPath><clipPath id="139228ae2e"><path d="M 104.324219 27.988281 L 126 27.988281 L 126 61.738281 L 104.324219 61.738281 Z M 104.324219 27.988281 " clip-rule="nonzero"/></clipPath><clipPath id="75413e596a"><rect x="0" width="88" y="0" height="63"/></clipPath></defs><g clip-path="url(#5750abae3e)"><path fill="#ff751f" d="M 92.175781 4.148438 L 76.03125 4.152344 C 75.089844 4.152344 74.304688 4.757812 74.082031 5.652344 L 71.726562 15.195312 L 69.628906 23.683594 L 61.164062 57.96875 C 61.003906 58.628906 61.171875 59.34375 61.621094 59.902344 C 62.066406 60.460938 62.742188 60.789062 63.429688 60.789062 L 70.960938 60.789062 L 70.289062 63.5 C 70.128906 64.15625 70.296875 64.875 70.746094 65.433594 C 71.191406 65.988281 71.867188 66.320312 72.554688 66.316406 L 132.914062 66.316406 C 133.855469 66.320312 134.644531 65.710938 134.863281 64.816406 L 144.789062 24.628906 C 144.949219 23.972656 144.78125 23.253906 144.335938 22.695312 C 143.886719 22.136719 143.214844 21.808594 142.523438 21.808594 L 135.007812 21.808594 L 136.300781 16.507812 C 136.460938 15.851562 136.292969 15.132812 135.84375 14.578125 C 135.398438 14.023438 134.722656 13.695312 134.035156 13.691406 L 108.273438 13.691406 C 107.894531 12.585938 107.296875 11.195312 106.1875 9.8125 C 103.851562 6.890625 99.390625 4.148438 92.175781 4.148438 Z M 77.921875 8.472656 L 92.492188 8.472656 C 98.683594 8.472656 101.398438 10.503906 102.878906 12.355469 C 104.359375 14.203125 104.519531 15.910156 104.519531 15.910156 C 104.632812 17.082031 105.660156 18.019531 106.835938 18.015625 L 131.398438 18.015625 L 130.472656 21.808594 C 127.660156 21.808594 124.472656 21.808594 121.28125 21.808594 L 106.039062 21.808594 C 105.121094 21.808594 104.34375 22.386719 104.105469 23.253906 C 103.480469 25.488281 102.609375 27.445312 101.488281 29.148438 C 101.480469 29.160156 101.472656 29.171875 101.464844 29.183594 C 101.398438 29.285156 101.328125 29.386719 101.261719 29.484375 C 101.175781 29.609375 101.085938 29.734375 101 29.859375 C 100.953125 29.917969 100.910156 29.980469 100.863281 30.039062 C 100.820312 30.101562 100.773438 30.160156 100.730469 30.222656 C 99.464844 31.898438 98.023438 33.300781 96.394531 34.457031 C 95 35.441406 93.46875 36.242188 91.785156 36.863281 C 91.757812 36.875 91.734375 36.882812 91.707031 36.894531 C 91.664062 36.910156 91.617188 36.925781 91.574219 36.941406 C 91.503906 36.96875 91.429688 36.992188 91.359375 37.015625 C 90.933594 37.164062 90.496094 37.300781 90.046875 37.425781 C 90.042969 37.425781 90.042969 37.425781 90.039062 37.425781 C 87.683594 38.054688 85.199219 38.375 82.5625 38.375 L 78.070312 38.375 C 77.523438 38.375 77.015625 38.582031 76.640625 38.953125 C 76.617188 38.980469 76.59375 39.003906 76.566406 39.03125 C 76.554688 39.042969 76.542969 39.058594 76.53125 39.070312 C 76.523438 39.085938 76.511719 39.097656 76.5 39.113281 C 76.484375 39.128906 76.46875 39.148438 76.457031 39.167969 C 76.453125 39.171875 76.449219 39.179688 76.445312 39.183594 C 76.429688 39.207031 76.410156 39.230469 76.394531 39.253906 C 76.378906 39.28125 76.363281 39.304688 76.347656 39.332031 C 76.324219 39.367188 76.304688 39.402344 76.285156 39.441406 C 76.277344 39.457031 76.269531 39.472656 76.261719 39.488281 C 76.246094 39.519531 76.234375 39.550781 76.21875 39.585938 C 76.214844 39.597656 76.210938 39.609375 76.207031 39.617188 C 76.203125 39.628906 76.195312 39.640625 76.191406 39.652344 C 76.1875 39.664062 76.183594 39.675781 76.179688 39.6875 C 76.175781 39.699219 76.171875 39.707031 76.167969 39.71875 C 76.164062 39.738281 76.15625 39.753906 76.152344 39.769531 C 76.152344 39.777344 76.148438 39.78125 76.148438 39.789062 C 76.144531 39.792969 76.144531 39.800781 76.140625 39.804688 C 76.140625 39.8125 76.140625 39.816406 76.136719 39.824219 C 76.132812 39.839844 76.128906 39.855469 76.125 39.875 L 76.019531 40.292969 L 72.027344 56.464844 L 66.074219 56.464844 L 73.84375 25 L 75.9375 16.511719 Z M 124.625 26.132812 L 139.875 26.132812 L 131.023438 61.996094 L 75.199219 61.996094 L 79.964844 42.695312 L 82.878906 42.695312 C 83.476562 42.695312 84.070312 42.679688 84.660156 42.652344 C 84.714844 42.648438 84.765625 42.644531 84.820312 42.644531 C 84.859375 42.640625 84.898438 42.636719 84.9375 42.636719 C 85.261719 42.617188 85.589844 42.59375 85.910156 42.566406 C 87.8125 42.402344 89.664062 42.085938 91.449219 41.605469 C 91.457031 41.605469 91.464844 41.605469 91.46875 41.601562 C 91.472656 41.601562 91.472656 41.601562 91.472656 41.601562 C 91.648438 41.554688 91.820312 41.503906 91.996094 41.449219 C 92.253906 41.371094 92.511719 41.289062 92.765625 41.203125 C 93.109375 41.089844 93.445312 40.972656 93.777344 40.84375 C 93.859375 40.8125 93.941406 40.78125 94.023438 40.75 C 94.105469 40.714844 94.1875 40.683594 94.269531 40.652344 C 94.351562 40.617188 94.433594 40.582031 94.515625 40.550781 C 94.597656 40.515625 94.679688 40.480469 94.757812 40.445312 C 94.921875 40.378906 95.082031 40.304688 95.242188 40.234375 C 95.320312 40.199219 95.402344 40.160156 95.480469 40.125 C 95.636719 40.050781 95.796875 39.972656 95.953125 39.894531 C 96.03125 39.859375 96.109375 39.820312 96.1875 39.777344 C 96.261719 39.738281 96.339844 39.699219 96.417969 39.660156 C 96.496094 39.621094 96.570312 39.578125 96.648438 39.539062 C 96.722656 39.496094 96.800781 39.457031 96.875 39.414062 C 97.105469 39.289062 97.328125 39.160156 97.550781 39.027344 C 98.070312 38.71875 98.578125 38.390625 99.070312 38.042969 C 99.128906 38 99.183594 37.957031 99.242188 37.917969 C 99.253906 37.90625 99.265625 37.898438 99.277344 37.890625 C 99.304688 37.871094 99.328125 37.855469 99.355469 37.835938 C 99.398438 37.804688 99.441406 37.769531 99.484375 37.738281 C 99.832031 37.484375 100.167969 37.21875 100.5 36.941406 C 100.695312 36.777344 100.894531 36.609375 101.085938 36.4375 C 101.148438 36.378906 101.214844 36.320312 101.277344 36.261719 C 101.40625 36.148438 101.53125 36.027344 101.65625 35.910156 C 101.71875 35.851562 101.78125 35.789062 101.84375 35.730469 C 101.902344 35.667969 101.964844 35.609375 102.027344 35.546875 C 102.148438 35.425781 102.269531 35.300781 102.390625 35.175781 C 102.632812 34.925781 102.867188 34.667969 103.097656 34.40625 C 103.15625 34.339844 103.210938 34.273438 103.269531 34.210938 C 103.269531 34.210938 103.269531 34.210938 103.269531 34.207031 C 103.609375 33.8125 103.941406 33.398438 104.261719 32.976562 C 104.316406 32.90625 104.367188 32.835938 104.421875 32.761719 C 104.472656 32.691406 104.527344 32.621094 104.578125 32.546875 C 104.628906 32.476562 104.683594 32.402344 104.734375 32.332031 C 104.785156 32.257812 104.835938 32.183594 104.886719 32.109375 C 104.925781 32.054688 104.964844 32 105 31.945312 C 106.167969 30.214844 107.046875 28.246094 107.761719 26.148438 C 111.871094 26.136719 118.429688 26.132812 124.625 26.132812 Z M 124.625 26.132812 " fill-opacity="1" fill-rule="nonzero"/></g><g clip-path="url(#139228ae2e)"><path fill="#ff751f" d="M 115.527344 27.988281 C 115.175781 28.449219 114.730469 28.875 114.574219 29.453125 C 114.453125 29.929688 114.8125 30.335938 115 30.742188 C 115.179688 30.445312 115.351562 30.148438 115.527344 29.851562 C 115.773438 30.125 115.910156 30.480469 116.15625 30.757812 C 116.359375 30.304688 116.714844 29.78125 116.457031 29.28125 C 116.222656 28.800781 115.886719 28.367188 115.527344 27.988281 Z M 113.847656 30.125 C 113.800781 30.128906 113.75 30.132812 113.699219 30.144531 C 112.90625 30.371094 112.914062 31.597656 113.59375 31.964844 C 113.964844 32.15625 114.449219 32.324219 114.507812 32.808594 C 114.910156 32.371094 114.957031 31.453125 114.316406 31.222656 C 114.273438 31.382812 114.210938 31.582031 114.003906 31.546875 C 113.636719 31.527344 113.683594 30.953125 114.003906 30.890625 C 114.25 30.800781 114.46875 30.957031 114.675781 31.0625 C 114.671875 30.625 114.3125 30.121094 113.847656 30.125 Z M 117.238281 30.132812 C 117.195312 30.132812 117.148438 30.136719 117.105469 30.144531 C 116.667969 30.226562 116.453125 30.679688 116.378906 31.074219 C 116.617188 30.933594 116.914062 30.753906 117.1875 30.921875 C 117.449219 31.03125 117.433594 31.496094 117.128906 31.53125 C 116.910156 31.574219 116.835938 31.339844 116.765625 31.1875 C 116.164062 31.460938 116.226562 32.296875 116.589844 32.746094 C 116.730469 32.054688 117.632812 32.164062 117.914062 31.582031 C 118.269531 31.046875 117.902344 30.132812 117.238281 30.132812 Z M 110.007812 30.433594 C 109.933594 31.0625 109.988281 31.828125 110.582031 32.191406 C 110.597656 32.039062 110.589844 31.882812 110.648438 31.738281 C 110.914062 31.710938 111.046875 32.023438 111.25 32.144531 C 111.238281 31.859375 111.292969 31.558594 111.226562 31.28125 C 110.960938 30.847656 110.460938 30.621094 110.007812 30.433594 Z M 121.101562 30.441406 C 121.085938 30.445312 121.050781 30.453125 121.035156 30.457031 C 120.664062 30.570312 120.3125 30.78125 120.042969 31.0625 C 119.742188 31.339844 119.921875 31.78125 119.863281 32.136719 C 120.050781 31.980469 120.207031 31.773438 120.4375 31.6875 C 120.539062 31.820312 120.59375 31.976562 120.671875 32.121094 C 121.152344 31.707031 121.179688 31.027344 121.101562 30.441406 Z M 115.527344 30.660156 C 115.378906 30.898438 115.195312 31.109375 114.992188 31.300781 C 115.28125 31.957031 114.984375 32.742188 114.417969 33.144531 C 113.863281 33.597656 113.109375 33.699219 112.417969 33.632812 C 112.1875 33.597656 111.933594 33.535156 111.785156 33.34375 C 112.117188 33.386719 112.503906 33.453125 112.78125 33.210938 C 113.300781 32.738281 113.054688 31.738281 112.375 31.566406 C 112.058594 31.457031 111.636719 31.585938 111.53125 31.925781 C 111.425781 32.199219 111.609375 32.550781 111.917969 32.542969 C 111.914062 32.378906 111.992188 32.160156 112.199219 32.226562 C 112.496094 32.277344 112.492188 32.75 112.195312 32.800781 C 111.648438 32.898438 111.257812 32.398438 110.816406 32.183594 C 110.703125 32.273438 110.753906 32.488281 110.726562 32.632812 C 110.519531 32.46875 110.265625 32.214844 109.980469 32.324219 C 110.007812 32.492188 110.082031 32.652344 110.0625 32.820312 C 109.636719 32.8125 109.511719 32.003906 109.996094 31.945312 C 109.644531 31.410156 108.859375 31.402344 108.300781 31.5625 C 109.257812 32.292969 109.921875 33.378906 110.210938 34.542969 C 113.746094 33.679688 117.453125 33.792969 121.003906 34.5 C 121.289062 33.355469 121.933594 32.292969 122.863281 31.558594 C 122.289062 31.394531 121.460938 31.398438 121.128906 31.988281 C 121.613281 31.992188 121.5 32.714844 121.160156 32.847656 C 120.925781 32.769531 121.113281 32.511719 121.164062 32.363281 C 120.890625 32.246094 120.625 32.460938 120.4375 32.640625 C 120.4375 32.476562 120.453125 32.304688 120.398438 32.148438 C 119.90625 32.351562 119.523438 32.90625 118.929688 32.804688 C 118.625 32.742188 118.636719 32.234375 118.96875 32.234375 C 119.238281 32.148438 119.144531 32.644531 119.382812 32.515625 C 119.71875 32.367188 119.652344 31.863281 119.398438 31.664062 C 119.050781 31.398438 118.511719 31.546875 118.277344 31.898438 C 117.976562 32.289062 118.011719 32.925781 118.402344 33.246094 C 118.714844 33.484375 119.125 33.367188 119.476562 33.304688 C 118.953125 33.8125 118.125 33.664062 117.472656 33.542969 C 116.53125 33.359375 115.710938 32.28125 116.140625 31.332031 C 115.949219 31.097656 115.722656 30.890625 115.527344 30.660156 Z M 115.660156 34.464844 C 115.082031 34.464844 114.5 34.476562 113.925781 34.492188 C 112.734375 34.566406 111.542969 34.730469 110.386719 35.023438 C 110.503906 35.453125 110.53125 35.933594 110.765625 36.308594 C 110.78125 36.480469 110.75 36.675781 110.902344 36.796875 C 109.511719 37.875 108.277344 39.152344 106.769531 40.070312 C 107.445312 40.203125 108.132812 40.191406 108.816406 40.195312 C 107.304688 41.773438 106.242188 43.757812 104.542969 45.160156 C 105.429688 45.214844 106.304688 45.066406 107.148438 44.808594 C 106.066406 46.621094 105.332031 48.613281 104.328125 50.46875 C 105.492188 50.070312 106.550781 49.371094 107.40625 48.488281 C 107.304688 50.015625 107.53125 51.585938 108.308594 52.917969 C 108.511719 51.792969 108.902344 50.683594 109.558594 49.738281 C 109.488281 51.855469 110.332031 53.902344 111.511719 55.625 C 112.101562 56.410156 112.714844 57.207031 113.507812 57.796875 C 113.160156 56.398438 112.855469 54.945312 113.011719 53.496094 C 114.585938 57.191406 117.726562 60.160156 121.464844 61.605469 C 120.46875 60.035156 119.710938 58.289062 119.332031 56.464844 C 119.6875 56.628906 120.039062 56.796875 120.40625 56.933594 C 120.113281 55.949219 119.867188 54.941406 119.78125 53.914062 C 120.988281 55.105469 122.578125 55.914062 124.265625 56.128906 C 123.132812 55.046875 122.273438 53.699219 121.710938 52.242188 C 122.855469 53.015625 124.15625 53.601562 125.546875 53.714844 C 124.078125 52.164062 123.003906 50.21875 122.496094 48.144531 C 123.191406 48.242188 123.929688 48.226562 124.585938 47.953125 C 123.242188 47.578125 122.078125 46.59375 121.53125 45.304688 C 121.90625 45.410156 122.300781 45.457031 122.691406 45.429688 C 121.890625 44.960938 121.234375 44.082031 121.339844 43.117188 C 121.484375 42.144531 122.488281 41.378906 123.457031 41.488281 C 123.992188 41.710938 124.054688 42.425781 124.042969 42.933594 C 125.335938 41.894531 125.742188 39.941406 125.007812 38.457031 C 124.554688 37.410156 123.433594 36.664062 122.28125 36.769531 C 121.984375 36.820312 121.6875 36.835938 121.386719 36.835938 C 121 36.929688 120.792969 36.511719 120.550781 36.292969 C 120.695312 35.890625 120.757812 35.4375 120.8125 35.03125 C 119.140625 34.570312 117.398438 34.460938 115.660156 34.464844 Z M 115.730469 35.085938 C 117.039062 35.09375 118.351562 35.230469 119.628906 35.515625 C 119.625 35.652344 119.671875 35.988281 119.453125 35.90625 C 118.042969 35.617188 116.597656 35.582031 115.160156 35.597656 C 113.988281 35.566406 112.824219 35.734375 111.671875 35.933594 C 111.636719 35.792969 111.621094 35.652344 111.628906 35.507812 C 112.539062 35.265625 113.480469 35.183594 114.417969 35.117188 C 114.855469 35.09375 115.292969 35.082031 115.730469 35.085938 Z M 116.390625 36.476562 C 116.898438 36.472656 117.40625 36.496094 117.90625 36.601562 C 118.523438 36.699219 119.105469 36.949219 119.722656 37.039062 C 119.414062 37.335938 119.09375 37.628906 118.847656 37.980469 C 118.476562 38.089844 118.121094 37.882812 117.761719 37.832031 C 117.832031 37.960938 117.925781 38.078125 117.980469 38.21875 C 117.492188 38.226562 117.023438 38.054688 116.550781 37.957031 C 115.773438 37.769531 115.035156 37.308594 114.214844 37.375 C 114.390625 37.535156 114.652344 37.5625 114.828125 37.695312 C 113.960938 37.96875 113.035156 38.578125 112.347656 39.261719 C 112.988281 39.011719 113.675781 38.851562 114.367188 38.90625 C 114.101562 39.085938 113.789062 39.171875 113.527344 39.359375 C 114.164062 39.449219 114.777344 39.65625 115.386719 39.847656 C 115.214844 39.949219 115 39.96875 114.847656 40.101562 C 115.578125 40.304688 116.375 40.355469 117.097656 40.101562 C 116.132812 40.960938 115.167969 41.839844 114.394531 42.886719 C 114.53125 42.277344 114.867188 41.734375 115.207031 41.222656 C 114.933594 41.273438 114.6875 41.40625 114.449219 41.542969 C 112.046875 42.914062 110.011719 44.945312 108.769531 47.421875 C 109.03125 44.886719 110.25 42.347656 112.390625 40.878906 C 110.679688 41.191406 109.347656 42.476562 108.347656 43.828125 C 108.6875 42.691406 109.375 41.679688 110.28125 40.917969 C 109.515625 41.15625 108.878906 41.683594 108.257812 42.167969 C 108.871094 40.976562 109.902344 40.054688 110.996094 39.308594 C 110.363281 39.246094 109.734375 39.351562 109.109375 39.445312 C 109.976562 38.691406 111.023438 38.152344 112.109375 37.792969 C 111.820312 37.707031 111.515625 37.695312 111.21875 37.640625 C 112.296875 36.945312 113.601562 36.648438 114.867188 36.503906 C 115.371094 36.507812 115.882812 36.480469 116.390625 36.476562 Z M 121.980469 37.488281 C 122.800781 37.511719 123.621094 37.78125 124.050781 38.519531 C 124.511719 39.335938 124.675781 40.375 124.257812 41.242188 C 123.902344 40.363281 122.902344 39.988281 122.015625 39.988281 C 120.316406 39.980469 118.636719 40.476562 117.128906 41.238281 C 117.402344 40.914062 117.746094 40.652344 118.003906 40.3125 C 118.628906 39.585938 118.960938 38.648438 119.652344 37.976562 C 120.003906 37.507812 120.667969 37.617188 121.179688 37.535156 C 121.4375 37.496094 121.707031 37.480469 121.980469 37.488281 Z M 120.484375 38.085938 C 120.46875 38.085938 120.433594 38.097656 120.378906 38.121094 C 120.089844 38.242188 119.851562 38.515625 119.785156 38.824219 C 119.777344 39.136719 119.960938 39.425781 120.160156 39.660156 C 120.175781 39.089844 120.617188 38.664062 121.0625 38.371094 C 120.835938 38.292969 120.589844 38.28125 120.351562 38.304688 C 120.414062 38.222656 120.550781 38.089844 120.484375 38.085938 Z M 115.75 38.316406 C 116.296875 38.285156 116.21875 39.019531 116.730469 39.042969 C 117.007812 39.117188 117.160156 38.835938 117.394531 38.773438 C 117.414062 39.265625 116.890625 39.585938 116.441406 39.507812 C 115.902344 39.453125 115.515625 38.808594 115.75 38.316406 Z M 120.3125 41.417969 C 119.636719 41.691406 118.921875 42.035156 118.503906 42.660156 C 118.863281 42.542969 119.21875 42.414062 119.585938 42.347656 C 118.789062 42.933594 118.125 43.683594 117.582031 44.503906 C 117.683594 43.890625 118.003906 43.347656 118.253906 42.789062 C 117.207031 42.988281 116.414062 43.816406 115.792969 44.632812 C 115.945312 43.746094 116.347656 42.886719 117.003906 42.261719 C 116.667969 42.277344 116.328125 42.316406 115.992188 42.3125 C 117.042969 41.679688 118.332031 41.589844 119.527344 41.433594 C 119.789062 41.417969 120.050781 41.417969 120.3125 41.417969 Z M 113.589844 42.800781 C 113.046875 43.960938 112.722656 45.242188 112.738281 46.523438 C 113.308594 45.550781 113.972656 44.609375 114.816406 43.859375 C 114.328125 44.753906 113.863281 45.675781 113.613281 46.667969 C 113.164062 48.441406 112.96875 50.320312 113.367188 52.121094 C 112.4375 50.84375 112.046875 49.230469 111.929688 47.671875 C 111.316406 48.910156 110.933594 50.28125 110.9375 51.671875 C 110.289062 48.542969 111.1875 45.03125 113.566406 42.824219 Z M 115.464844 45.480469 C 115.257812 46.347656 115.371094 47.242188 115.628906 48.082031 C 115.863281 47.308594 116.160156 46.539062 116.632812 45.875 C 116.507812 46.425781 116.484375 46.996094 116.5625 47.554688 C 116.796875 47.070312 117.0625 46.601562 117.359375 46.15625 C 116.714844 48.839844 116.898438 51.804688 118.292969 54.230469 C 116.683594 52.902344 115.765625 50.875 115.460938 48.84375 C 115.132812 49.554688 115.1875 50.371094 115.15625 51.136719 C 114.59375 49.316406 114.660156 47.257812 115.449219 45.511719 Z M 120.136719 45.929688 C 120.300781 46.582031 120.691406 47.140625 121.042969 47.703125 C 121.179688 47.941406 121.015625 47.324219 121.132812 47.582031 C 121.488281 48.5 121.933594 49.386719 122.558594 50.152344 C 121.027344 49.371094 120.195312 47.601562 120.136719 45.929688 Z M 118.167969 47.273438 C 118.40625 47.910156 118.628906 48.589844 119.140625 49.066406 C 119.113281 48.492188 119.195312 47.917969 119.3125 47.359375 C 119.429688 48.917969 119.929688 50.445312 120.71875 51.792969 C 119.179688 50.859375 118.25 49.050781 118.167969 47.273438 Z M 118.167969 47.273438 " fill-opacity="1" fill-rule="nonzero"/></g><g transform="matrix(1, 0, 0, 1, 151, 8)"><g clip-path="url(#75413e596a)"><g fill="#ff751f" fill-opacity="1"><g transform="translate(0.806219, 21.379181)"><g><path d="M 1.765625 0 L 1.765625 -17.984375 L 7.703125 -17.984375 C 8.941406 -17.984375 10.101562 -17.75 11.1875 -17.28125 C 12.28125 -16.8125 13.238281 -16.164062 14.0625 -15.34375 C 14.882812 -14.53125 15.53125 -13.578125 16 -12.484375 C 16.46875 -11.398438 16.703125 -10.238281 16.703125 -9 C 16.703125 -7.757812 16.46875 -6.59375 16 -5.5 C 15.53125 -4.414062 14.882812 -3.460938 14.0625 -2.640625 C 13.238281 -1.816406 12.28125 -1.171875 11.1875 -0.703125 C 10.101562 -0.234375 8.941406 0 7.703125 0 Z M 5.71875 -3.5 L 7.671875 -3.5 C 8.628906 -3.5 9.488281 -3.738281 10.25 -4.21875 C 11.007812 -4.707031 11.613281 -5.363281 12.0625 -6.1875 C 12.507812 -7.019531 12.734375 -7.957031 12.734375 -9 C 12.734375 -10.03125 12.507812 -10.960938 12.0625 -11.796875 C 11.613281 -12.628906 11.007812 -13.285156 10.25 -13.765625 C 9.488281 -14.242188 8.628906 -14.484375 7.671875 -14.484375 L 5.71875 -14.484375 Z M 5.71875 -3.5 "/></g></g></g><g fill="#ff751f" fill-opacity="1"><g transform="translate(20.006835, 21.379181)"><g><path d="M 1.921875 0 L 1.921875 -17.984375 L 5.875 -17.984375 L 5.875 0 Z M 1.921875 0 "/></g></g></g><g fill="#ff751f" fill-opacity="1"><g transform="translate(29.163422, 21.379181)"><g><path d="M 10.34375 -9.859375 L 19.609375 -9.859375 L 19.609375 -9 C 19.609375 -7.71875 19.367188 -6.519531 18.890625 -5.40625 C 18.410156 -4.300781 17.742188 -3.320312 16.890625 -2.46875 C 16.046875 -1.625 15.066406 -0.960938 13.953125 -0.484375 C 12.847656 -0.00390625 11.65625 0.234375 10.375 0.234375 C 9.09375 0.234375 7.890625 -0.00390625 6.765625 -0.484375 C 5.648438 -0.960938 4.671875 -1.625 3.828125 -2.46875 C 2.992188 -3.320312 2.335938 -4.300781 1.859375 -5.40625 C 1.378906 -6.519531 1.140625 -7.71875 1.140625 -9 C 1.140625 -10.269531 1.378906 -11.457031 1.859375 -12.5625 C 2.335938 -13.675781 2.992188 -14.65625 3.828125 -15.5 C 4.671875 -16.351562 5.648438 -17.019531 6.765625 -17.5 C 7.890625 -17.988281 9.09375 -18.234375 10.375 -18.234375 C 12.15625 -18.234375 13.769531 -17.773438 15.21875 -16.859375 C 16.664062 -15.953125 17.78125 -14.757812 18.5625 -13.28125 L 15.140625 -11.515625 C 14.703125 -12.367188 14.0625 -13.054688 13.21875 -13.578125 C 12.382812 -14.097656 11.4375 -14.359375 10.375 -14.359375 C 9.375 -14.359375 8.460938 -14.125 7.640625 -13.65625 C 6.828125 -13.1875 6.179688 -12.546875 5.703125 -11.734375 C 5.234375 -10.921875 5 -10.007812 5 -9 C 5 -7.976562 5.234375 -7.0625 5.703125 -6.25 C 6.179688 -5.4375 6.828125 -4.796875 7.640625 -4.328125 C 8.460938 -3.859375 9.375 -3.625 10.375 -3.625 C 11.488281 -3.625 12.476562 -3.910156 13.34375 -4.484375 C 14.21875 -5.066406 14.867188 -5.832031 15.296875 -6.78125 L 10.34375 -6.78125 Z M 10.34375 -9.859375 "/></g></g></g><g fill="#ff751f" fill-opacity="1"><g transform="translate(51.302297, 21.379181)"><g><path d="M 1.921875 0 L 1.921875 -17.984375 L 5.875 -17.984375 L 5.875 0 Z M 1.921875 0 "/></g></g></g><g fill="#ff751f" fill-opacity="1"><g transform="translate(60.464372, 21.379181)"><g/></g></g><g fill="#ff751f" fill-opacity="1"><g transform="translate(1.104471, 54.532192)"><g><path d="M 17.453125 -17.984375 L 21.703125 -17.984375 L 21.703125 0 L 17.75 0 L 17.75 -10.703125 L 12.859375 0 L 10.578125 0 L 5.71875 -10.734375 L 5.71875 0 L 1.765625 0 L 1.765625 -17.984375 L 6.0625 -17.984375 L 11.71875 -5.546875 Z M 17.453125 -17.984375 "/></g></g></g><g fill="#ff751f" fill-opacity="1"><g transform="translate(25.97172, 54.532192)"><g><path d="M 12.734375 -14.515625 L 5.875 -14.515625 L 5.875 -10.734375 L 11.75 -10.734375 L 11.75 -7.25 L 5.875 -7.25 L 5.875 -3.484375 L 12.734375 -3.484375 L 12.734375 0 L 1.921875 0 L 1.921875 -17.984375 L 12.734375 -17.984375 Z M 12.734375 -14.515625 "/></g></g></g><g fill="#ff751f" fill-opacity="1"><g transform="translate(41.334616, 54.532192)"><g><path d="M 1.765625 0 L 1.765625 -17.984375 L 7.703125 -17.984375 C 8.941406 -17.984375 10.101562 -17.75 11.1875 -17.28125 C 12.28125 -16.8125 13.238281 -16.164062 14.0625 -15.34375 C 14.882812 -14.53125 15.53125 -13.578125 16 -12.484375 C 16.46875 -11.398438 16.703125 -10.238281 16.703125 -9 C 16.703125 -7.757812 16.46875 -6.59375 16 -5.5 C 15.53125 -4.414062 14.882812 -3.460938 14.0625 -2.640625 C 13.238281 -1.816406 12.28125 -1.171875 11.1875 -0.703125 C 10.101562 -0.234375 8.941406 0 7.703125 0 Z M 5.71875 -3.5 L 7.671875 -3.5 C 8.628906 -3.5 9.488281 -3.738281 10.25 -4.21875 C 11.007812 -4.707031 11.613281 -5.363281 12.0625 -6.1875 C 12.507812 -7.019531 12.734375 -7.957031 12.734375 -9 C 12.734375 -10.03125 12.507812 -10.960938 12.0625 -11.796875 C 11.613281 -12.628906 11.007812 -13.285156 10.25 -13.765625 C 9.488281 -14.242188 8.628906 -14.484375 7.671875 -14.484375 L 5.71875 -14.484375 Z M 5.71875 -3.5 "/></g></g></g><g fill="#ff751f" fill-opacity="1"><g transform="translate(60.535233, 54.532192)"><g><path d="M 1.921875 0 L 1.921875 -17.984375 L 5.875 -17.984375 L 5.875 0 Z M 1.921875 0 "/></g></g></g><g fill="#ff751f" fill-opacity="1"><g transform="translate(69.69182, 54.532192)"><g><path d="M 12.765625 0 L 11.65625 -3.390625 L 4.953125 -3.390625 L 3.84375 0 L -0.390625 0 L 6.09375 -17.984375 L 10.515625 -17.984375 L 17 0 Z M 6 -6.6875 L 10.609375 -6.6875 L 8.296875 -13.828125 Z M 6 -6.6875 "/></g></g></g></g></g></svg>